<svg width="32" height="32" viewBox="0 0 32 32" fill="none" xmlns="http://www.w3.org/2000/svg">
<path fill-rule="evenodd" clip-rule="evenodd" d="M13.0624 11.0026C12.9935 11.5505 13.4477 12 14 12H20.125V15H15C13.8954 15 13 15.8954 13 17V18.3923L7 16.2494V14.875H8C8.48325 14.875 8.875 14.4832 8.875 14C8.875 13.5168 8.48325 13.125 8 13.125H4C3.51675 13.125 3.125 13.5168 3.125 14C3.125 14.4832 3.51675 14.875 4 14.875H5.25V20.0702C3.39935 20.4213 2 22.0472 2 24C2 26.2091 3.79086 28 6 28C8.03981 28 9.723 26.4732 9.96905 24.5H13.063C13.285 25.3626 14.0681 26 15 26H16.9996C17.9118 27.2144 19.3642 28 21 28C22.6358 28 24.0882 27.2144 25.0004 26H27C28.1046 26 29 25.1046 29 24V17C29 15.8954 28.1046 15 27 15H21.875V12L28 12C28.5523 12 29.0065 11.5505 28.9376 11.0026C28.7172 9.2486 27.9201 7.60639 26.6569 6.34315C25.1566 4.84285 23.1217 4 21 4C18.8783 4 16.8434 4.84285 15.3431 6.34315C14.0799 7.60639 13.2828 9.2486 13.0624 11.0026ZM15 10.25C15.2916 9.25038 15.8311 8.33008 16.5806 7.58058C17.7527 6.40848 19.3424 5.75 21 5.75C22.6576 5.75 24.2473 6.40848 25.4194 7.58058C26.1689 8.33008 26.7084 9.25038 27 10.25L15 10.25ZM7 20.126V18.1077L13 20.2506V22.75H9.80081C9.37816 21.4641 8.32116 20.4661 7 20.126ZM21 26.25C21.0498 26.25 21.0993 26.2489 21.1486 26.2467C22.8745 26.169 24.25 24.7451 24.25 23C24.25 21.2051 22.7949 19.75 21 19.75C19.2051 19.75 17.75 21.2051 17.75 23C17.75 24.7383 19.1147 26.1579 20.8312 26.2457C20.8871 26.2486 20.9434 26.25 21 26.25ZM16 23C16 23.4316 16.0547 23.8505 16.1575 24.25H15C14.8619 24.25 14.75 24.1381 14.75 24V17C14.75 16.8619 14.8619 16.75 15 16.75H27C27.1381 16.75 27.25 16.8619 27.25 17V24C27.25 24.1381 27.1381 24.25 27 24.25H25.8425C25.9453 23.8505 26 23.4316 26 23C26 20.2386 23.7614 18 21 18C18.2386 18 16 20.2386 16 23ZM3.75 24C3.75 25.2426 4.75736 26.25 6 26.25C7.24264 26.25 8.25 25.2426 8.25 24C8.25 22.7574 7.24264 21.75 6 21.75C4.75736 21.75 3.75 22.7574 3.75 24Z" fill="#1C1E2E"/>
</svg>
