<svg width="32" height="32" viewBox="0 0 32 32" fill="none" xmlns="http://www.w3.org/2000/svg">
<path fill-rule="evenodd" clip-rule="evenodd" d="M4 15V7.75H2.875C2.39175 7.75 2 7.35825 2 6.875C2 6.39175 2.39175 6 2.875 6H18.125C18.6082 6 19 6.39175 19 6.875C19 7.35825 18.6082 7.75 18.125 7.75H17V15H23.2647L22.9928 12.8543C22.9848 12.7918 22.9317 12.745 22.8687 12.745H21.5C21.0168 12.745 20.625 12.3533 20.625 11.87C20.625 11.3868 21.0168 10.995 21.5 10.995H22.8687C23.8131 10.995 24.6101 11.6974 24.7289 12.6342L25.5358 19.0001C28.0046 19.0194 30 21.0266 30 23.5C30 25.9853 27.9853 28 25.5 28C23.0147 28 21 25.9853 21 23.5C21 21.6112 22.1637 19.9942 23.8132 19.3268L23.4865 16.75H18.9845C18.9947 16.8319 19 16.9153 19 17V24C19 25.1046 18.1046 26 17 26H14.5004C13.5882 27.2144 12.1358 28 10.5 28C8.86418 28 7.41184 27.2144 6.49963 26H4C2.89543 26 2 25.1046 2 24V17C2 15.8954 2.89543 15 4 15ZM15.25 7.75V15H5.75V7.75H15.25ZM17 16.75H4C3.86193 16.75 3.75 16.8619 3.75 17V24C3.75 24.1381 3.86193 24.25 4 24.25H5.65752C5.55469 23.8505 5.5 23.4316 5.5 23C5.5 20.2386 7.73858 18 10.5 18C13.2614 18 15.5 20.2386 15.5 23C15.5 23.4316 15.4453 23.8505 15.3425 24.25H17C17.1381 24.25 17.25 24.1381 17.25 24V17C17.25 16.8619 17.1381 16.75 17 16.75ZM10.3514 26.2467C10.4007 26.2489 10.4502 26.25 10.5 26.25C10.5566 26.25 10.6129 26.2486 10.6688 26.2457C12.3853 26.1579 13.75 24.7383 13.75 23C13.75 21.2051 12.2949 19.75 10.5 19.75C8.70507 19.75 7.25 21.2051 7.25 23C7.25 24.7451 8.62547 26.169 10.3514 26.2467ZM25.5 26.25C27.0188 26.25 28.25 25.0188 28.25 23.5C28.25 21.9812 27.0188 20.75 25.5 20.75C23.9812 20.75 22.75 21.9812 22.75 23.5C22.75 25.0188 23.9812 26.25 25.5 26.25Z" fill="#1C1E2E"/>
</svg>
