<svg width="32" height="32" viewBox="0 0 32 32" fill="none" xmlns="http://www.w3.org/2000/svg">
<path fill-rule="evenodd" clip-rule="evenodd" d="M23 10C23.5523 10 24.0065 9.55054 23.9376 9.00257C23.7172 7.2486 22.9201 5.60639 21.6569 4.34315C20.1566 2.84285 18.1217 2 16 2C13.8783 2 11.8434 2.84285 10.3431 4.34315C9.0799 5.60639 8.28276 7.2486 8.06239 9.00257C7.99355 9.55054 8.44772 10 9 10L15.125 10V13H8C6.89543 13 6 13.8954 6 15V19.2561C4.25221 19.8738 3 21.5407 3 23.5C3 25.9853 5.01472 28 7.5 28C9.67462 28 11.489 26.4575 11.9086 24.4069C11.9359 24.2733 11.9573 24.1376 11.9725 24H20.0275C20.0427 24.1376 20.0641 24.2733 20.0914 24.4069C20.511 26.4575 22.3254 28 24.5 28C26.9853 28 29 25.9853 29 23.5C29 21.7191 27.9655 20.1798 26.4646 19.4504L26.8547 14.75H29.125C29.6082 14.75 30 14.3582 30 13.875C30 13.3918 29.6082 13 29.125 13H16.875V10H23ZM20.4194 5.58058C21.1689 6.33008 21.7084 7.25038 22 8.25L9.99998 8.25C10.2916 7.25038 10.8311 6.33008 11.5806 5.58058C12.7527 4.40848 14.3424 3.75 16 3.75C17.6576 3.75 19.2473 4.40848 20.4194 5.58058ZM8 14.75C7.86193 14.75 7.75 14.8619 7.75 15V19.0068C9.69111 19.1131 11.3046 20.4496 11.8241 22.25H20.1759C20.7176 20.3729 22.4485 19 24.5 19C24.5823 19 24.6642 19.0022 24.7454 19.0066L25.0987 14.75H8ZM4.76563 23.205C4.79854 22.8965 4.88247 22.6032 5.00884 22.3337C5.44766 21.398 6.39815 20.75 7.5 20.75C9.01878 20.75 10.25 21.9812 10.25 23.5C10.25 24.3292 9.883 25.0727 9.30258 25.5769C8.82204 25.9943 8.19522 26.2477 7.50925 26.25L7.5 26.25C5.98122 26.25 4.75 25.0188 4.75 23.5C4.75 23.4004 4.7553 23.3019 4.76563 23.205ZM24.4907 26.25C23.8048 26.2477 23.178 25.9943 22.6974 25.5769C22.117 25.0727 21.75 24.3292 21.75 23.5C21.75 21.9812 22.9812 20.75 24.5 20.75C25.8824 20.75 27.0265 21.77 27.2209 23.0984C27.2401 23.2295 27.25 23.3636 27.25 23.5C27.25 25.0188 26.0188 26.25 24.5 26.25L24.4907 26.25Z" fill="#1C1E2E"/>
</svg>
