<svg width="32" height="32" viewBox="0 0 32 32" fill="none" xmlns="http://www.w3.org/2000/svg">
<path fill-rule="evenodd" clip-rule="evenodd" d="M4 4.875C4 4.39175 4.39175 4 4.875 4H27.125C27.6082 4 28 4.39175 28 4.875C28 5.35825 27.6082 5.75 27.125 5.75H26V16H27C27.5523 16 28 16.4477 28 17V23C28 24.1046 27.1046 25 26 25H25.874C25.4299 26.7252 23.8638 28 22 28C20.2051 28 18.6863 26.8178 18.1798 25.1895C18.1604 25.127 18.1424 25.0638 18.126 25H13.874C13.8576 25.0638 13.8396 25.127 13.8202 25.1895C13.3137 26.8178 11.7949 28 10 28C8.13617 28 6.57006 26.7252 6.12601 25H6C4.89543 25 4 24.1046 4 23L4.00001 17C4.00001 16.4477 4.44772 16 5.00001 16H6V5.75H4.875C4.39175 5.75 4 5.35825 4 4.875ZM7.75 16H24.25V12.75H7.75V16ZM9.99756 26.25L10 26.25C10.4623 26.25 10.8929 26.1102 11.251 25.8705C11.8534 25.4667 12.25 24.7797 12.25 24C12.25 22.7574 11.2426 21.75 10 21.75C8.75736 21.75 7.75 22.7574 7.75 24C7.75 25.2418 8.75604 26.2487 9.99756 26.25ZM13.9298 23.25C13.5787 21.3994 11.9528 20 10 20C8.04721 20 6.42125 21.3994 6.0702 23.25H6C5.86193 23.25 5.75 23.1381 5.75 23L5.75001 17.75H26.25V23C26.25 23.1381 26.1381 23.25 26 23.25H25.9298C25.5787 21.3994 23.9528 20 22 20C20.0472 20 18.4213 21.3994 18.0702 23.25H13.9298ZM20.7561 25.8752C21.1104 26.1107 21.5354 26.2485 21.9924 26.25C21.995 26.25 21.9975 26.25 22 26.25C22.4623 26.25 22.8929 26.1102 23.251 25.8705C23.8534 25.4667 24.25 24.7797 24.25 24C24.25 22.7574 23.2426 21.75 22 21.75C20.7574 21.75 19.75 22.7574 19.75 24C19.75 24.7827 20.1497 25.4721 20.7561 25.8752ZM24.25 11H16.75V5.75H24.25V11ZM15 5.75V11H7.75V5.75H15Z" fill="#1C1E2E"/>
</svg>
