<svg width="32" height="32" viewBox="0 0 32 32" fill="none" xmlns="http://www.w3.org/2000/svg">
<path fill-rule="evenodd" clip-rule="evenodd" d="M28.4854 5.77193C28.8875 6.03999 28.9961 6.58325 28.7281 6.98534L24.7183 13H29.125C29.6082 13 30 13.3917 30 13.875C30 14.3582 29.6082 14.75 29.125 14.75H28.7777C28.6962 15.0657 28.5925 15.3761 28.4672 15.6788C28.1154 16.528 27.5998 17.2997 26.9497 17.9497C26.5453 18.3542 26.0937 18.7067 25.6056 19H27C27.5523 19 28 19.4477 28 20V25C28 25.5523 27.5523 26 27 26H17C16.4477 26 16 25.5523 16 25V22.4875C15.3302 22.3773 14.7764 22.1521 14.3147 21.8327C13.6656 21.3836 13.2762 20.8007 13 20.2971V22C13 23.3875 12.0581 24.555 10.7788 24.8979C10.9141 25.0125 11 25.1837 11 25.375C11 25.7201 10.7202 26 10.375 26H4.625C4.27982 26 4 25.7201 4 25.375C4 25.1837 4.0859 25.0125 4.22122 24.8979C2.94193 24.555 2 23.3875 2 22V13C2 11.6021 2.95608 10.4275 4.25 10.0945V7.74997H3.875C3.39175 7.74997 3 7.35822 3 6.87497C3 6.39172 3.39175 5.99997 3.875 5.99997H11.125C11.6082 5.99997 12 6.39172 12 6.87497C12 7.35822 11.6082 7.74997 11.125 7.74997H10.75V10.0945C12.0439 10.4275 13 11.6021 13 13V17.3658C13.0229 17.378 13.0455 17.3907 13.0679 17.4039C13.376 17.5847 13.6009 17.8276 13.7717 18.0639C13.9393 18.2958 14.0742 18.5493 14.187 18.7724C14.2283 18.8541 14.2661 18.9303 14.3025 19.0037C14.3745 19.1491 14.441 19.2835 14.5193 19.4278C14.742 19.8387 14.9746 20.1612 15.3103 20.3935C15.4821 20.5123 15.7034 20.6228 16 20.7008V20C16 19.4477 16.4477 19 17 19H18.3944C17.9063 18.7067 17.4547 18.3542 17.0503 17.9497C16.4002 17.2997 15.8846 16.528 15.5328 15.6788C15.4075 15.3761 15.3038 15.0657 15.2223 14.75H14.875C14.3918 14.75 14 14.3582 14 13.875C14 13.3917 14.3918 13 14.875 13H22.615L27.272 6.01461C27.54 5.61252 28.0833 5.50387 28.4854 5.77193ZM26.8504 15.0091C26.8858 14.9235 26.9189 14.8371 26.9497 14.75L17.0503 14.75C17.0811 14.8371 17.1142 14.9235 17.1496 15.0091C17.4135 15.646 17.8002 16.2248 18.2877 16.7123C18.7752 17.1998 19.354 17.5865 19.9909 17.8503C20.6279 18.1142 21.3106 18.25 22 18.25C22.6894 18.25 23.3721 18.1142 24.0091 17.8503C24.646 17.5865 25.2248 17.1998 25.7123 16.7123C26.1998 16.2248 26.5865 15.646 26.8504 15.0091ZM17.75 24.25V20.75H26.25V24.25H17.75ZM9 7.74997H6V9.99997H9V7.74997ZM10 11.75H5C4.30964 11.75 3.75 12.3096 3.75 13V22C3.75 22.6903 4.30964 23.25 5 23.25H10C10.6904 23.25 11.25 22.6903 11.25 22V13C11.25 12.3096 10.6904 11.75 10 11.75Z" fill="#1C1E2E"/>
</svg>
