<svg width="32" height="32" viewBox="0 0 32 32" fill="none" xmlns="http://www.w3.org/2000/svg">
<path fill-rule="evenodd" clip-rule="evenodd" d="M6.28583 11C6.55383 10.2016 7.00417 9.46766 7.61091 8.86091C8.51628 7.95554 9.7048 7.39842 10.9683 7.27574C11.8225 5.34621 13.7541 4 16 4C18.246 4 20.1775 5.34621 21.0317 7.27574C22.2952 7.39842 23.4837 7.95555 24.3891 8.86091C24.9958 9.46766 25.4462 10.2016 25.7142 11H28C29.1046 11 30 11.8954 30 13V16C30 17.1046 29.1046 18 28 18H26V19.7578C27.206 20.565 28 21.9398 28 23.5C28 25.9853 25.9853 28 23.5 28C21.0147 28 19 25.9853 19 23.5C19 22.974 19.0902 22.4692 19.2561 22H12.7439C12.9098 22.4692 13 22.974 13 23.5C13 25.9853 10.9853 28 8.5 28C6.01472 28 4 25.9853 4 23.5C4 21.9398 4.79401 20.565 6 19.7578V18H4C2.89543 18 2 17.1046 2 16V13C2 11.8954 2.89543 11 4 11L6.28583 11ZM17.8483 10.0983C18.5516 9.39509 19.5054 9 20.5 9C21.4946 9 22.4484 9.39509 23.1516 10.0983C23.4197 10.3664 23.6429 10.6708 23.8166 11L17.1834 11C17.3571 10.6708 17.5803 10.3664 17.8483 10.0983ZM14.8166 11C14.6429 10.6708 14.4197 10.3664 14.1517 10.0983C13.4484 9.39509 12.4946 9 11.5 9C10.5054 9 9.55161 9.39509 8.84835 10.0983C8.58032 10.3664 8.35706 10.6708 8.18337 11L14.8166 11ZM19.124 7.42489C18.4521 6.41529 17.3037 5.75 16 5.75C14.6963 5.75 13.548 6.41529 12.876 7.42489C13.8189 7.66856 14.6887 8.16054 15.3891 8.86091C15.6148 9.08664 15.8189 9.32998 16 9.58768C16.1811 9.32998 16.3852 9.08664 16.6109 8.86091C17.3113 8.16054 18.1811 7.66856 19.124 7.42489ZM28 12.75C28.1381 12.75 28.25 12.8619 28.25 13V16C28.25 16.1381 28.1381 16.25 28 16.25H4C3.86193 16.25 3.75 16.1381 3.75 16V13C3.75 12.8619 3.86193 12.75 4 12.75H28ZM23.5 19C22.2923 19 21.1958 19.4757 20.3875 20.25H11.6125C10.8042 19.4757 9.70766 19 8.5 19C8.331 19 8.16417 19.0093 8 19.0275V18H24.25V19.0622C24.0061 19.0213 23.7555 19 23.5 19ZM11.25 23.5C11.25 25.0188 10.0188 26.25 8.5 26.25C6.98122 26.25 5.75 25.0188 5.75 23.5C5.75 21.9812 6.98122 20.75 8.5 20.75C10.0188 20.75 11.25 21.9812 11.25 23.5ZM26.25 23.5C26.25 25.0188 25.0188 26.25 23.5 26.25C21.9812 26.25 20.75 25.0188 20.75 23.5C20.75 21.9812 21.9812 20.75 23.5 20.75C25.0188 20.75 26.25 21.9812 26.25 23.5Z" fill="#1C1E2E"/>
</svg>
