<svg width="32" height="32" viewBox="0 0 32 32" fill="none" xmlns="http://www.w3.org/2000/svg">
<path fill-rule="evenodd" clip-rule="evenodd" d="M25.218 8.3446C25.541 8.40834 25.8578 8.50399 26.1634 8.6306C26.77 8.88188 27.3212 9.25017 27.7855 9.71447C28.2498 10.1788 28.6181 10.73 28.8694 11.3366C29.1207 11.9432 29.25 12.5934 29.25 13.25H29.5C29.7761 13.25 30 13.4739 30 13.75V14.5C30 14.7761 29.7761 15 29.5 15H28.9845C28.9947 15.0819 29 15.1653 29 15.25V21C29 22.1046 28.1046 23 27 23H26.9725C26.9573 23.1376 26.9359 23.2733 26.9086 23.4069C26.489 25.4575 24.6746 27 22.5 27C20.1837 27 18.2762 25.25 18.0275 23H13.9725C13.9573 23.1376 13.9359 23.2733 13.9086 23.4069C13.489 25.4575 11.6746 27 9.5 27C7.18372 27 5.27619 25.25 5.02746 23H5C3.89543 23 3 22.1046 3 21V15.25C3 15.1653 3.00526 15.0819 3.01547 15H2.5C2.22386 15 2 14.7761 2 14.5V13.75C2 13.4739 2.22386 13.25 2.5 13.25H2.75C2.75 12.5934 2.87933 11.9432 3.1306 11.3366C3.38188 10.73 3.75017 10.1788 4.21447 9.71447C4.67876 9.25017 5.22995 8.88188 5.83658 8.6306C6.44321 8.37933 7.09339 8.25 7.75 8.25C7.77204 8.25 7.79407 8.25015 7.81609 8.25044C7.83661 8.19549 7.85812 8.14086 7.8806 8.08658C8.13188 7.47996 8.50017 6.92876 8.96447 6.46447C9.42876 6.00017 9.97995 5.63188 10.5866 5.3806C11.1932 5.12933 11.8434 5 12.5 5C13.1566 5 13.8068 5.12933 14.4134 5.3806C15.02 5.63188 15.5712 6.00017 16.0355 6.46447C16.2032 6.63214 16.3584 6.81114 16.5 7C16.6416 6.81114 16.7968 6.63214 16.9645 6.46447C17.4288 6.00017 17.98 5.63188 18.5866 5.3806C19.1932 5.12933 19.8434 5 20.5 5C21.1566 5 21.8068 5.12933 22.4134 5.3806C23.02 5.63188 23.5712 6.00017 24.0355 6.46447C24.4998 6.92876 24.8681 7.47995 25.1194 8.08658C25.1547 8.17176 25.1876 8.2578 25.218 8.3446ZM16.0012 10H15.9988C15.1373 10.0003 14.3111 10.3427 13.7019 10.9519C13.0924 11.5614 12.75 12.388 12.75 13.25H19.25C19.25 12.388 18.9076 11.5614 18.2981 10.9519C17.6889 10.3427 16.8627 10.0003 16.0012 10ZM17.6087 8.51585C17.7615 8.21806 17.9608 7.94299 18.2019 7.7019C18.8114 7.09241 19.638 6.75 20.5 6.75C21.362 6.75 22.1886 7.09241 22.7981 7.7019C22.9915 7.89533 23.1581 8.11064 23.2953 8.342C22.9676 8.40573 22.6464 8.50226 22.3366 8.6306C21.73 8.88188 21.1788 9.25017 20.7145 9.71447C20.496 9.93294 20.2988 10.1707 20.125 10.4243C19.9512 10.1707 19.754 9.93294 19.5355 9.71447C19.0712 9.25017 18.52 8.88188 17.9134 8.6306C17.813 8.589 17.7113 8.55073 17.6087 8.51585ZM24.25 10C23.388 10 22.5614 10.3424 21.9519 10.9519C21.3424 11.5614 21 12.388 21 13.25H27.5C27.5 12.388 27.1576 11.5614 26.5481 10.9519C25.9386 10.3424 25.112 10 24.25 10ZM14.7981 7.7019C14.9807 7.8845 15.1393 8.0866 15.272 8.30329C14.8658 8.36307 14.4676 8.47278 14.0866 8.6306C13.48 8.88188 12.9288 9.25017 12.4645 9.71447C12.246 9.93294 12.0488 10.1707 11.875 10.4243C11.7012 10.1707 11.504 9.93294 11.2855 9.71447C10.8212 9.25017 10.27 8.88188 9.66342 8.6306C9.63249 8.61779 9.60144 8.6053 9.57029 8.59312C9.72757 8.26559 9.94009 7.96371 10.2019 7.7019C10.8114 7.09241 11.638 6.75 12.5 6.75C13.362 6.75 14.1886 7.09241 14.7981 7.7019ZM7.75149 10C8.6129 10.0004 9.43895 10.3428 10.0481 10.9519C10.6576 11.5614 11 12.388 11 13.25H4.5C4.5 12.388 4.84241 11.5614 5.4519 10.9519C6.06105 10.3428 6.88709 10.0004 7.74851 10H7.75149ZM4.75 15.25C4.75 15.1119 4.86193 15 5 15H27C27.1381 15 27.25 15.1119 27.25 15.25V21C27.25 21.1381 27.1381 21.25 27 21.25H26.9725C26.9232 21.25 26.8743 21.2521 26.8259 21.2561C26.2862 19.3758 24.5538 18 22.5 18C20.4462 18 18.7138 19.3758 18.1741 21.2561C18.1257 21.2521 18.0768 21.25 18.0275 21.25H13.9725C13.9232 21.25 13.8743 21.2521 13.8259 21.2561C13.2862 19.3758 11.5538 18 9.5 18C7.44624 18 5.71381 19.3758 5.17413 21.2561C5.12574 21.2521 5.07682 21.25 5.02746 21.25H5C4.86193 21.25 4.75 21.1381 4.75 21V15.25ZM25.25 22.5C25.25 23.3292 24.883 24.0727 24.3026 24.5769C23.822 24.9943 23.1952 25.2477 22.5093 25.25L22.5 25.25L22.4907 25.25C21.8048 25.2477 21.178 24.9943 20.6974 24.5769C20.117 24.0727 19.75 23.3292 19.75 22.5C19.75 20.9812 20.9812 19.75 22.5 19.75C24.0188 19.75 25.25 20.9812 25.25 22.5ZM12.25 22.5C12.25 23.3292 11.883 24.0727 11.3026 24.5769C10.8197 24.9961 10.1892 25.25 9.5 25.25C8.81079 25.25 8.18031 24.9961 7.69742 24.5769C7.117 24.0727 6.75 23.3292 6.75 22.5C6.75 20.9812 7.98122 19.75 9.5 19.75C11.0188 19.75 12.25 20.9812 12.25 22.5Z" fill="#1C1E2E"/>
</svg>
