<svg width="32" height="32" viewBox="0 0 32 32" fill="none" xmlns="http://www.w3.org/2000/svg">
<path fill-rule="evenodd" clip-rule="evenodd" d="M6.18534 8.99635L7.0265 5.85709L5.93983 5.56592C5.47305 5.44085 5.19604 4.96105 5.32112 4.49427C5.44619 4.02749 5.92599 3.75048 6.39277 3.87555L27.8846 9.63428C28.3514 9.75935 28.6284 10.2391 28.5033 10.7059C28.3783 11.1727 27.8985 11.4497 27.4317 11.3246L26.345 11.0335L25.5039 14.1727C26.5708 14.4586 27.2039 15.5553 26.9181 16.6222L25.1063 23.3837C25.0844 23.4655 25.0577 23.5447 25.0267 23.6212L28.0601 24.434C28.5269 24.5591 28.8039 25.0389 28.6788 25.5057C28.5537 25.9725 28.0739 26.2495 27.6072 26.1244L20.6042 24.248L20.5948 24.2454L18.3831 23.6528C17.404 25.6359 15.3613 27 12.9999 27C9.68623 27 6.99994 24.3137 6.99994 21C6.99994 20.8676 7.00423 20.7363 7.01267 20.6061L3.33833 19.6215C2.27139 19.3356 1.63823 18.239 1.92411 17.172L3.73585 10.4106C4.02173 9.34363 5.11841 8.71046 6.18534 8.99635ZM15.9613 8.25117L15.1202 11.3904L7.87571 9.44928L8.71687 6.31003L15.9613 8.25117ZM7.38038 18.8929C8.23355 16.6186 10.4277 15 12.9999 15C16.3136 15 18.9999 17.6863 18.9999 21C18.9999 21.3354 18.9724 21.6644 18.9195 21.9848L23.1098 23.1075C23.2431 23.1433 23.3802 23.0641 23.416 22.9308L25.2277 16.1693C25.2634 16.0359 25.1843 15.8988 25.0509 15.8631L5.7324 10.6867C5.59904 10.651 5.46195 10.7301 5.42622 10.8635L3.61448 17.625C3.57875 17.7583 3.65789 17.8954 3.79126 17.9312L7.38038 18.8929ZM16.8105 11.8434L17.6517 8.7041L24.6546 10.5805L23.8135 13.7198L16.8105 11.8434ZM17.2499 21C17.2499 23.3472 15.3472 25.25 12.9999 25.25C10.6527 25.25 8.74994 23.3472 8.74994 21C8.74994 18.6528 10.6527 16.75 12.9999 16.75C15.3472 16.75 17.2499 18.6528 17.2499 21Z" fill="#1C1E2E"/>
</svg>
