<svg width="32" height="32" viewBox="0 0 32 32" fill="none" xmlns="http://www.w3.org/2000/svg">
<path fill-rule="evenodd" clip-rule="evenodd" d="M4 7V6C4 4.89543 4.89543 4 6 4H26C27.1046 4 28 4.89543 28 6V7C28 8.19527 27.2083 9.2506 26 9.88203V18C27.1046 18 28 18.8954 28 20V26C28 27.1046 27.1046 28 26 28H6C4.89543 28 4 27.1046 4 26V20C4 18.8954 4.89543 18 6 18V9.88203C4.79174 9.2506 4 8.19527 4 7ZM7.75 10.4374V18H24.25V10.4374C23.9667 10.4785 23.6742 10.5 23.375 10.5C21.8391 10.5 20.4781 9.93347 19.637 9.0615C18.8186 9.93347 17.4943 10.5 16 10.5C14.5057 10.5 13.1814 9.93347 12.363 9.0615C11.5219 9.93347 10.1609 10.5 8.625 10.5C8.32585 10.5 8.03333 10.4785 7.75 10.4374ZM6.41066 8.07941C5.9059 7.69744 5.75 7.29892 5.75 7V6C5.75 5.86193 5.86193 5.75 6 5.75H11.5V7C11.5 7.29892 11.3441 7.69744 10.8393 8.07941C10.3335 8.46219 9.55644 8.75 8.625 8.75C7.69356 8.75 6.91648 8.46219 6.41066 8.07941ZM13.25 7V5.75H18.75V7C18.75 7.58269 17.9536 8.75 16 8.75C14.0464 8.75 13.25 7.58269 13.25 7ZM20.5 7V5.75H26C26.1381 5.75 26.25 5.86193 26.25 6V7C26.25 7.29892 26.0941 7.69744 25.5893 8.07941C25.0835 8.46219 24.3064 8.75 23.375 8.75C22.4436 8.75 21.6665 8.46219 21.1607 8.07941C20.6559 7.69744 20.5 7.29892 20.5 7ZM5.75 20C5.75 19.8619 5.86193 19.75 6 19.75H26C26.1381 19.75 26.25 19.8619 26.25 20V26C26.25 26.1381 26.1381 26.25 26 26.25H6C5.86193 26.25 5.75 26.1381 5.75 26V20Z" fill="#1C1E2E"/>
</svg>
