<svg width="32" height="32" viewBox="0 0 32 32" fill="none" xmlns="http://www.w3.org/2000/svg">
<path fill-rule="evenodd" clip-rule="evenodd" d="M27.75 10.5H28C29.1046 10.5 30 9.60457 30 8.5V7C30 5.89543 29.1046 5 28 5H4C2.89543 5 2 5.89543 2 7V8.5C2 9.60457 2.89543 10.5 4 10.5H4.25V25.125C4.25 25.6082 4.64175 26 5.125 26C5.60825 26 6 25.6082 6 25.125V10.5H26V25.125C26 25.6082 26.3918 26 26.875 26C27.3582 26 27.75 25.6082 27.75 25.125V10.5ZM3.75 7V8.5C3.75 8.63807 3.86193 8.75 4 8.75H28C28.1381 8.75 28.25 8.63807 28.25 8.5V7C28.25 6.86193 28.1381 6.75 28 6.75H4C3.86193 6.75 3.75 6.86193 3.75 7Z" fill="#1C1E2E"/>
<path fill-rule="evenodd" clip-rule="evenodd" d="M25 18.25C25 17.7904 24.9095 17.3352 24.7336 16.9106C24.5577 16.486 24.2999 16.1001 23.9749 15.7751C23.6499 15.4501 23.264 15.1923 22.8394 15.0164C22.4148 14.8405 21.9596 14.75 21.5 14.75C21.0404 14.75 20.5852 14.8405 20.1606 15.0164C19.736 15.1923 19.3501 15.4501 19.0251 15.7751C18.9272 15.8731 18.8353 15.9765 18.75 16.0849C18.6647 15.9765 18.5728 15.8731 18.4749 15.7751C18.1499 15.4501 17.764 15.1923 17.3394 15.0164C16.9148 14.8405 16.4596 14.75 16 14.75C15.5404 14.75 15.0852 14.8405 14.6606 15.0164C14.236 15.1923 13.8501 15.4501 13.5251 15.7751C13.4272 15.8731 13.3353 15.9765 13.25 16.0849C13.1647 15.9765 13.0728 15.8731 12.9749 15.7751C12.6499 15.4501 12.264 15.1923 11.8394 15.0164C11.4148 14.8405 10.9596 14.75 10.5 14.75C10.0404 14.75 9.58525 14.8405 9.16061 15.0164C8.73597 15.1923 8.35013 15.4501 8.02513 15.7751C7.70012 16.1001 7.44231 16.486 7.26642 16.9106C7.09053 17.3352 7 17.7904 7 18.25V26.25C7 27.3546 7.89543 28.25 9 28.25H23C24.1046 28.25 25 27.3546 25 26.25V18.25ZM23.25 26.25V20H8.75V26.25C8.75 26.3881 8.86193 26.5 9 26.5H23C23.1381 26.5 23.25 26.3881 23.25 26.25ZM8.75 18.25H12.25C12.25 17.7859 12.0656 17.3408 11.7374 17.0126C11.4092 16.6844 10.9641 16.5 10.5 16.5C10.0359 16.5 9.59075 16.6844 9.26256 17.0126C8.93437 17.3408 8.75 17.7859 8.75 18.25ZM14.25 18.25H17.75C17.75 17.7859 17.5656 17.3408 17.2374 17.0126C16.9092 16.6844 16.4641 16.5 16 16.5C15.5359 16.5 15.0908 16.6844 14.7626 17.0126C14.4344 17.3408 14.25 17.7859 14.25 18.25ZM19.75 18.25H23.25C23.25 17.7859 23.0656 17.3408 22.7374 17.0126C22.4092 16.6844 21.9641 16.5 21.5 16.5C21.0359 16.5 20.5908 16.6844 20.2626 17.0126C19.9344 17.3408 19.75 17.7859 19.75 18.25Z" fill="#1C1E2E"/>
</svg>
