<svg width="32" height="32" viewBox="0 0 32 32" fill="none" xmlns="http://www.w3.org/2000/svg">
<path fill-rule="evenodd" clip-rule="evenodd" d="M21 8.85V8C21 7.93097 20.9965 7.86275 20.9897 7.79551C20.8873 6.787 20.0355 6 19 6H4C3.86193 6 3.72713 6.01399 3.59693 6.04063C2.75066 6.2138 2.09909 6.92147 2.01033 7.79551C2.0035 7.86275 2 7.93096 2 8V23C2 24.1046 2.89543 25 4 25H5.12602C5.57006 26.7252 7.13616 28 9 28C10.8638 28 12.4299 26.7252 12.874 25H18.126C18.5701 26.7252 20.1362 28 22 28C23.8638 28 25.4299 26.7252 25.874 25H28C29.1046 25 30 24.1046 30 23V14.55L28.7041 10.8567C28.2823 9.65462 27.1473 8.85 25.8733 8.85H21ZM11.25 24C11.25 25.2426 10.2426 26.25 9 26.25L8.99373 26.25C8.53681 26.2487 8.11116 26.111 7.75607 25.8752C7.14967 25.4721 6.75 24.7827 6.75 24C6.75 22.7574 7.75736 21.75 9 21.75C10.2426 21.75 11.25 22.7574 11.25 24ZM9 20C7.04721 20 5.42125 21.3994 5.0702 23.25H4C3.86193 23.25 3.75 23.1381 3.75 23V19H19C20.1046 19 21 18.1046 21 17V10.6H23V17C23 18.1046 23.8954 19 25 19H28.25V23C28.25 23.1381 28.1381 23.25 28 23.25H25.9298C25.5787 21.3994 23.9528 20 22 20C20.0472 20 18.4213 21.3994 18.0702 23.25H12.9298C12.5787 21.3994 10.9528 20 9 20ZM3.75 17.25H6.01547C6.00526 17.1681 6 17.0847 6 17V12C6 11.9153 6.00526 11.8319 6.01547 11.75H5.875C5.39175 11.75 5 11.3582 5 10.875C5 10.3918 5.39175 10 5.875 10H17.125C17.6082 10 18 10.3918 18 10.875C18 11.3582 17.6082 11.75 17.125 11.75H16.9845C16.9947 11.8319 17 11.9153 17 12V17C17 17.0847 16.9947 17.1681 16.9845 17.25H19C19.1381 17.25 19.25 17.1381 19.25 17V8C19.25 7.86194 19.1381 7.75 19 7.75H4C3.86193 7.75 3.75 7.86193 3.75 8V17.25ZM15 11.75H8C7.86193 11.75 7.75 11.8619 7.75 12V17C7.75 17.1381 7.86193 17.25 8 17.25H15C15.1381 17.25 15.25 17.1381 15.25 17V12C15.25 11.8619 15.1381 11.75 15 11.75ZM27.0682 11.6159L28.25 15.2755V17.25H25C24.8619 17.25 24.75 17.1381 24.75 17V10.75H25.8787C26.4211 10.75 26.9016 11.0998 27.0682 11.6159ZM20.7561 25.8752C21.1112 26.111 21.5368 26.2487 21.9937 26.25L22 26.25C23.2426 26.25 24.25 25.2426 24.25 24C24.25 22.7574 23.2426 21.75 22 21.75C20.7574 21.75 19.75 22.7574 19.75 24C19.75 24.7827 20.1497 25.4721 20.7561 25.8752Z" fill="#1C1E2E"/>
</svg>
