<svg width="32" height="32" viewBox="0 0 32 32" fill="none" xmlns="http://www.w3.org/2000/svg">
<path fill-rule="evenodd" clip-rule="evenodd" d="M6.28583 11.5C6.55383 10.7016 7.00417 9.96766 7.61091 9.36091C8.63926 8.33257 10.0329 7.75349 11.4868 7.75002C11.7251 7.33724 12.0181 6.95378 12.3609 6.61091C13.3924 5.57946 14.7913 5 16.25 5C17.7087 5 19.1076 5.57946 20.1391 6.61091C20.489 6.96078 20.7868 7.35293 21.0277 7.77536C22.2927 7.89725 23.4828 8.45459 24.3891 9.36091C24.9958 9.96766 25.4462 10.7016 25.7142 11.5H25.8185C26.9915 11.5 27.9126 12.5047 27.811 13.6733L27.4924 17.3373C28.4336 18.4649 29 19.9163 29 21.5C29 25.0899 26.0899 28 22.5 28C19.4264 28 16.8511 25.8667 16.1739 23H6.75V26.125C6.75 26.6082 6.35825 27 5.875 27C5.39175 27 5 26.6082 5 26.125V13.25H2.875C2.39175 13.25 2 12.8582 2 12.375C2 11.8918 2.39175 11.5 2.875 11.5L6.28583 11.5ZM20.5 9.5C20.6207 9.5 20.7408 9.50581 20.8599 9.51729C21.7223 9.60039 22.5337 9.98044 23.1517 10.5984C23.4197 10.8664 23.6429 11.1708 23.8166 11.5L17.1834 11.5C17.3571 11.1708 17.5803 10.8664 17.8483 10.5983C18.5516 9.89509 19.5054 9.5 20.5 9.5ZM14.8166 11.5C14.6429 11.1708 14.4197 10.8664 14.1517 10.5983C13.4484 9.89509 12.4946 9.5 11.5 9.5L11.4945 9.5L11.491 9.50001C10.4997 9.50238 9.54949 9.89721 8.84835 10.5983C8.58032 10.8664 8.35706 11.1708 8.18337 11.5L14.8166 11.5ZM25.8185 13.25H6.75V21.25H16.0047C16.1361 17.776 18.9939 15 22.5 15C23.7287 15 24.8778 15.3409 25.8579 15.9334L26.0676 13.5217C26.0803 13.3756 25.9652 13.25 25.8185 13.25ZM19.0059 7.95683C18.9719 7.92005 18.9372 7.88388 18.9017 7.84835C18.1984 7.14509 17.2446 6.75 16.25 6.75C15.2554 6.75 14.3016 7.14509 13.5983 7.84835C13.5231 7.92362 13.4514 8.00174 13.3833 8.08247C14.1301 8.35466 14.8163 8.78808 15.3891 9.36091C15.6148 9.58664 15.8189 9.82998 16 10.0877C16.1811 9.82998 16.3852 9.58664 16.6109 9.36091C17.2819 8.68989 18.1085 8.21016 19.0059 7.95683ZM27.25 21.5C27.25 24.1234 25.1234 26.25 22.5 26.25C19.8766 26.25 17.75 24.1234 17.75 21.5C17.75 18.8766 19.8766 16.75 22.5 16.75C25.1234 16.75 27.25 18.8766 27.25 21.5Z" fill="#1C1E2E"/>
</svg>
